<?xml version="1.0" standalone="no"?>
<!DOCTYPE svg PUBLIC "-//W3C//DTD SVG 20010904//EN"
 "http://www.w3.org/TR/2001/REC-SVG-20010904/DTD/svg10.dtd">
<svg version="1.0" xmlns="http://www.w3.org/2000/svg"
 width="1280.000000pt" height="826.000000pt" viewBox="0 0 1280.000000 826.000000"
 preserveAspectRatio="xMidYMid meet">
<metadata>
Created by potrace 1.15, written by Peter Selinger 2001-2017
</metadata>
<g transform="translate(0.000000,826.000000) scale(0.100000,-0.100000)"
fill="#FFFFFF" stroke="none">
<path d="M8550 8014 c-23 -9 -40 -35 -40 -60 0 -13 18 -58 41 -100 51 -97 121
-306 150 -449 30 -143 33 -390 7 -505 -10 -41 -22 -106 -28 -145 -20 -127 -89
-309 -200 -530 -149 -295 -248 -431 -556 -766 -137 -148 -332 -324 -501 -451
-172 -128 -602 -293 -655 -251 -7 6 -24 14 -38 18 -73 22 -121 87 -170 235
-43 126 -71 191 -80 185 -5 -3 -6 5 -4 17 2 13 2 17 -2 10 -3 -6 -26 29 -50
80 -103 210 -129 200 -158 -57 -21 -180 -36 -231 -85 -287 -44 -50 -137 -103
-215 -124 -60 -16 -230 -19 -206 -4 12 8 11 10 -6 10 -28 0 -109 43 -161 87
-38 30 -58 35 -35 7 4 -5 -20 21 -55 57 -34 37 -79 74 -99 84 -35 16 -37 16
-56 -3 -43 -43 -14 -264 64 -494 34 -101 40 -130 36 -179 -5 -68 -36 -110 -97
-131 -49 -17 -190 -14 -281 5 -41 9 -113 19 -160 22 -190 13 -416 54 -775 140
-179 43 -591 197 -579 216 3 5 -3 6 -12 2 -12 -4 -15 -3 -10 5 5 8 1 10 -10 5
-12 -4 -15 -3 -10 5 5 8 1 10 -10 5 -12 -4 -15 -3 -10 5 5 8 1 10 -10 5 -12
-4 -15 -3 -10 5 5 8 1 10 -10 5 -12 -4 -15 -3 -10 5 4 8 2 10 -8 6 -8 -3 -23
3 -34 14 -11 11 -23 18 -26 14 -3 -3 -6 0 -6 6 0 6 -10 16 -21 23 -16 8 -20 8
-14 -1 6 -9 2 -9 -14 -1 -11 7 -21 14 -21 17 0 3 5 2 10 -1 6 -3 10 -4 10 -1
0 3 -10 10 -21 17 -16 8 -20 8 -14 -1 6 -9 2 -9 -14 -1 -11 7 -21 14 -21 17 0
3 5 2 12 -2 7 -5 8 -3 4 5 -5 7 -15 10 -23 7 -8 -3 -11 -2 -8 4 7 11 -32 33
-45 25 -5 -3 -12 0 -16 6 -5 8 -2 10 7 5 8 -4 3 2 -11 13 -14 11 -31 19 -37
16 -7 -2 -12 1 -10 8 1 7 -7 12 -18 12 -11 0 -20 7 -20 15 0 8 -9 14 -18 14
-10 -1 -16 1 -13 4 7 7 -13 32 -26 32 -5 0 -6 -6 -2 -12 4 -8 3 -10 -2 -5 -5
5 -9 12 -9 15 0 13 -16 32 -26 32 -6 0 -7 -5 -3 -12 4 -7 3 -8 -5 -4 -6 4 -9
11 -6 15 2 5 -30 38 -73 74 -215 182 -482 498 -574 682 -62 123 -115 326 -138
534 -8 76 -7 118 6 219 8 68 13 134 10 145 -3 12 0 54 6 94 12 83 6 123 -20
123 -75 0 -473 -371 -698 -650 -55 -69 -173 -234 -262 -367 -142 -212 -181
-281 -323 -565 -99 -197 -194 -405 -244 -533 -46 -115 -97 -239 -113 -275 -16
-36 -33 -81 -37 -100 -4 -19 -38 -138 -76 -263 -38 -126 -78 -268 -89 -315
-11 -48 -42 -183 -70 -300 -64 -272 -80 -372 -80 -504 l0 -107 141 84 c77 47
144 83 149 80 5 -3 12 0 16 6 4 8 3 9 -4 5 -7 -4 -12 -5 -12 -2 0 3 10 10 21
17 15 8 19 8 15 0 -14 -22 7 -10 37 22 17 17 27 25 23 17 -4 -8 2 -4 14 10 12
14 19 19 15 12 -6 -11 -3 -12 14 -3 22 12 30 27 9 16 -19 -10 24 25 46 37 14
8 17 7 11 -4 -4 -7 3 -2 15 12 12 14 19 19 15 12 -6 -11 -3 -12 11 -4 26 14
62 45 44 37 -21 -9 20 24 45 36 15 8 13 4 -5 -11 l-25 -22 34 19 c18 10 36 24
38 31 3 7 14 17 25 23 15 8 19 8 14 0 -5 -7 -1 -9 8 -5 9 3 14 10 11 14 -3 4
2 11 11 14 8 3 12 2 9 -4 -3 -5 7 -5 25 1 16 6 28 15 25 19 -13 21 369 114
570 141 114 15 350 15 436 0 68 -11 295 -103 384 -155 68 -40 127 -97 154
-148 12 -24 33 -58 46 -75 23 -34 45 -128 45 -199 0 -21 -12 -132 -26 -245
-40 -322 -24 -345 144 -217 52 40 102 73 111 73 9 0 16 7 16 15 0 8 9 15 20
15 11 0 20 5 20 12 0 6 4 15 9 20 5 5 6 3 2 -4 -4 -7 -3 -13 2 -13 11 0 30 20
32 35 1 6 4 12 7 15 4 3 3 -1 -1 -7 -4 -7 -3 -13 2 -13 14 0 33 26 25 34 -4 4
-1 5 7 2 8 -3 26 4 40 15 14 11 19 18 13 14 -7 -3 -13 -4 -13 -1 0 3 10 10 21
17 16 8 20 8 14 -1 -6 -9 -2 -9 14 -1 11 7 21 14 21 17 0 3 -4 2 -10 -1 -5 -3
-10 -4 -10 -1 0 3 10 10 21 17 17 9 20 8 14 -1 -5 -7 6 -5 23 5 17 10 29 22
27 26 -3 4 2 10 11 13 9 4 13 2 8 -5 -4 -8 0 -7 15 0 11 7 21 16 21 22 0 6 5
7 10 4 6 -3 10 -1 10 5 0 6 5 8 10 5 6 -3 10 -1 10 5 0 6 4 8 10 5 5 -3 10 -1
10 5 0 7 7 9 16 6 10 -4 13 -2 8 6 -5 8 -1 9 12 4 10 -4 15 -4 11 0 -10 10 82
47 223 90 168 52 239 64 360 64 123 0 223 -17 328 -55 81 -29 279 -153 329
-206 46 -48 140 -236 165 -327 18 -67 21 -114 25 -361 l5 -283 57 54 c102 97
128 119 143 122 27 3 69 37 62 48 -4 7 -3 8 4 4 14 -8 124 63 116 75 -3 5 3 6
12 2 13 -5 15 -3 9 7 -5 8 -4 11 3 6 13 -8 63 14 57 24 -6 9 25 23 33 15 3 -3
-1 -5 -8 -5 -7 0 -11 -2 -8 -5 8 -8 39 6 33 15 -9 15 99 34 185 34 73 -1 97
-6 171 -37 333 -138 583 -316 820 -587 207 -237 302 -380 497 -750 49 -94 188
-389 235 -500 20 -48 19 10 -2 136 -32 187 -61 393 -60 422 l1 27 8 -30 c9
-33 6 21 -10 215 -36 429 -17 715 72 1085 62 260 145 466 251 625 73 110 265
297 349 340 36 19 65 38 62 41 -5 8 33 21 115 40 141 31 416 -38 568 -143 32
-22 108 -89 169 -149 72 -71 119 -109 132 -109 20 0 22 5 22 58 0 31 -7 82
-15 112 -17 65 -19 80 -4 60 8 -12 9 -11 5 5 -16 63 -28 230 -23 309 11 153
76 355 159 492 58 96 201 228 287 263 17 8 29 17 26 21 -3 4 1 8 8 7 6 0 21 1
32 2 17 1 18 3 5 12 -12 9 -11 10 8 6 12 -3 20 -1 17 3 -6 10 71 28 185 42
161 19 422 -23 627 -101 43 -17 109 -40 148 -52 38 -12 126 -50 195 -84 112
-56 228 -101 237 -92 1 2 -18 49 -43 105 -25 56 -42 107 -38 113 4 7 3 9 -3 6
-6 -4 -14 0 -17 9 -3 8 -2 12 4 9 18 -11 11 5 -64 164 -75 158 -159 398 -193
553 -36 166 -18 394 43 557 53 140 173 286 288 351 57 32 70 44 39 34 -15 -5
-16 -4 -3 5 8 6 23 8 34 5 10 -4 16 -2 13 3 -7 12 182 96 200 89 8 -3 12 -2 9
3 -7 11 84 36 187 52 91 14 504 7 607 -11 36 -6 171 -46 300 -90 230 -78 342
-105 368 -91 9 5 -15 42 -84 127 -54 65 -87 110 -73 99 23 -19 23 -19 -2 15
-15 19 -31 35 -37 35 -6 0 -14 4 -19 9 -5 5 -3 6 5 2 39 -23 -14 43 -189 233
-59 64 -120 123 -135 131 -16 8 -71 57 -123 108 -52 50 -98 92 -104 92 -5 0
-3 -8 4 -17 7 -10 -6 0 -29 22 -49 46 -57 62 -9 19 17 -16 10 -5 -18 24 -46
48 -75 68 -59 40 4 -7 -7 0 -24 16 -37 34 -43 49 -9 20 13 -10 10 -6 -6 9 -15
15 -32 25 -36 22 -5 -2 -15 3 -22 13 -13 16 -12 16 6 2 20 -15 20 -15 1 8 -11
12 -25 21 -32 18 -7 -3 -20 5 -31 17 l-18 22 23 -19 c12 -11 22 -16 22 -13 0
3 -48 43 -107 88 -146 112 -140 107 -128 89 6 -9 -2 -3 -16 14 -14 16 -31 26
-36 23 -6 -4 -17 1 -24 11 -13 16 -13 16 5 2 11 -8 17 -10 14 -5 -4 6 -28 26
-55 45 -26 19 -43 27 -38 19 6 -8 -1 -3 -15 11 -14 15 -34 33 -45 41 -19 13
-19 13 -5 -6 14 -19 14 -19 -5 -6 -11 8 -31 26 -44 40 -13 14 -20 20 -16 13 4
-8 -15 1 -43 20 -28 18 -48 36 -46 39 2 4 -4 6 -14 5 -9 0 -16 4 -15 11 2 7
-3 10 -10 7 -7 -2 -21 3 -32 12 -11 8 -14 12 -6 8 9 -4 12 -3 7 4 -4 6 -12 9
-19 6 -7 -2 -21 3 -32 12 -11 8 -14 12 -6 8 9 -5 12 -3 7 5 -4 6 -12 8 -18 5
-6 -4 -20 4 -30 17 -11 13 -16 18 -12 10 5 -10 -2 -9 -24 4 -17 10 -29 22 -26
27 3 5 2 7 -3 6 -13 -4 -73 24 -68 31 2 4 -1 8 -8 8 -17 1 -266 131 -260 136
2 3 -2 4 -9 4 -7 -1 -44 14 -83 34 -130 67 -354 158 -650 264 -135 48 -367
104 -555 134 -69 11 -168 30 -220 41 -99 21 -244 34 -270 24z m2621 -1011 c13
-16 12 -17 -3 -4 -17 13 -22 21 -14 21 2 0 10 -8 17 -17z m150 -110 c13 -16
12 -17 -3 -4 -10 7 -18 15 -18 17 0 8 8 3 21 -13z m44 -33 c10 -11 16 -20 13
-20 -3 0 -13 9 -23 20 -10 11 -16 20 -13 20 3 0 13 -9 23 -20z m46 -37 c13
-16 12 -17 -3 -4 -10 7 -18 15 -18 17 0 8 8 3 21 -13z m40 -30 c13 -16 12 -17
-3 -4 -10 7 -18 15 -18 17 0 8 8 3 21 -13z m-6431 -4837 c0 -2 -8 -10 -17 -17
-16 -13 -17 -12 -4 4 13 16 21 21 21 13z m2117 -1088 c-3 -8 -6 -5 -6 6 -1 11
2 17 5 13 3 -3 4 -12 1 -19z"/>
<path d="M11920 6395 c13 -14 26 -25 28 -25 3 0 -5 11 -18 25 -13 14 -26 25
-28 25 -3 0 5 -11 18 -25z"/>
</g>
</svg>
